# xmcd
#
# Track frame offsets: 
#        150
#        18868
#        36629
#        45202
#        64486
#        80629
#        89766
#        110043
#        126504
#        144701
#        151048
#        168629
#        183186
#        205944
#        213600
#
# Disc length: 3023 seconds
#
# Revision: 2
# Processed by: cddbd v1.5.2PL0 Copyright (c) Steve Scherf et al.
# Submitted via: ExactAudioCopyFreeDBPlugin 1.0
#
DISCID=e00bcd0f
DTITLE=CunninLynguists - Oneirology
DYEAR=2011
DGENRE=Hip-Hop
TTITLE0=Predormitum (Prologue)
TTITLE1=Darkness (Dream On) (feat. Anna Wise)
TTITLE2=Phantasmata
TTITLE3=Hard as They Come (Act I) (feat. Freddie Gibbs)
TTITLE4=Murder (Act II) (feat. Big K.R.I.T.)
TTITLE5=My Habit (I Haven't Changed)
TTITLE6=Get Ignorant
TTITLE7=Shattered Dreams
TTITLE8=Stars Shine Brightest (in the Darkest of Night) (feat. Rick Wa
TTITLE8=rren)
TTITLE9=So as Not to Wake You (Interlude)
TTITLE10=Enemies With Benefits (feat. Tonedeff)
TTITLE11=Looking Back (feat. Anna Wise)
TTITLE12=Dreams (feat. Tunji and B.J. The Chicago Kid)
TTITLE13=Hypnopomp (Epilogue) (feat. Bianca Spriggs)
TTITLE14=Embers
EXTD=
EXTT0=
EXTT1=
EXTT2=
EXTT3=
EXTT4=
EXTT5=
EXTT6=
EXTT7=
EXTT8=
EXTT9=
EXTT10=
EXTT11=
EXTT12=
EXTT13=
EXTT14=
PLAYORDER=
